<mxfile host="65bd71144e" scale="2" border="30">
    <diagram id="0QhtwqMjpmc_AO-MrRb4" name="第 1 页">
        <mxGraphModel dx="1145" dy="658" grid="0" gridSize="10" guides="1" tooltips="1" connect="1" arrows="1" fold="1" page="1" pageScale="1" pageWidth="1654" pageHeight="2336" background="#FFFFFF" math="0" shadow="0">
            <root>
                <mxCell id="0"/>
                <mxCell id="1" parent="0"/>
                <mxCell id="1242" value="" style="rounded=1;whiteSpace=wrap;html=1;dashed=1;fontFamily=Tahoma;fontSize=10;fontColor=#FFFFFF;strokeColor=#345253;strokeWidth=1;fillColor=none;" vertex="1" parent="1">
                    <mxGeometry x="250.63" y="231" width="370" height="190" as="geometry"/>
                </mxCell>
                <mxCell id="1226" value="" style="rounded=0;whiteSpace=wrap;html=1;fontFamily=Tahoma;fontSize=10;fontColor=#FFFFFF;strokeWidth=2;strokeColor=none;fillColor=#EDF2F4;" vertex="1" parent="1">
                    <mxGeometry x="114.88" y="441" width="458" height="83" as="geometry"/>
                </mxCell>
                <mxCell id="1176" value="" style="rounded=1;whiteSpace=wrap;html=1;dashed=1;strokeColor=none;fillColor=#EDF2F4;" vertex="1" parent="1">
                    <mxGeometry x="52.129999999999995" y="126" width="583" height="86" as="geometry"/>
                </mxCell>
                <mxCell id="1184" style="edgeStyle=orthogonalEdgeStyle;html=1;entryX=0.5;entryY=0;entryDx=0;entryDy=0;endArrow=oval;endFill=1;strokeColor=#999999;startArrow=none;" edge="1" parent="1" source="1181" target="1176">
                    <mxGeometry relative="1" as="geometry"/>
                </mxCell>
                <mxCell id="1027" value="&lt;font color=&quot;#345253&quot; face=&quot;tahoma&quot;&gt;&lt;b&gt;Map Side Task&lt;/b&gt;&lt;/font&gt;" style="whiteSpace=wrap;html=1;dashed=1;fontFamily=Verdana;fontColor=#FFFFFF;strokeColor=none;fillColor=#EDF2F4;rounded=1;" parent="1" vertex="1">
                    <mxGeometry x="268.88" y="26" width="150" height="40" as="geometry"/>
                </mxCell>
                <mxCell id="1117" value="&lt;b&gt;&lt;font face=&quot;Tahoma&quot; color=&quot;#345253&quot;&gt;PartitionedPairBuffer&lt;/font&gt;&lt;/b&gt;" style="text;html=1;strokeColor=none;fillColor=none;align=center;verticalAlign=middle;whiteSpace=wrap;rounded=0;fontColor=#FFFFFF;" parent="1" vertex="1">
                    <mxGeometry x="94.63" y="186" width="182" height="20" as="geometry"/>
                </mxCell>
                <mxCell id="1144" value="" style="group" vertex="1" connectable="0" parent="1">
                    <mxGeometry x="65.63" y="140" width="240" height="40" as="geometry"/>
                </mxCell>
                <mxCell id="1135" value="&lt;font face=&quot;Tahoma&quot; color=&quot;#ffffff&quot;&gt;&lt;b&gt;K1&lt;/b&gt;&lt;/font&gt;" style="rounded=0;whiteSpace=wrap;html=1;strokeColor=#FFFFFF;fillColor=#6E96A6;" vertex="1" parent="1144">
                    <mxGeometry width="30" height="40" as="geometry"/>
                </mxCell>
                <mxCell id="1136" value="&lt;font color=&quot;#345253&quot; face=&quot;Tahoma&quot;&gt;&lt;b&gt;V1&lt;/b&gt;&lt;/font&gt;" style="rounded=0;whiteSpace=wrap;html=1;strokeColor=#FFFFFF;fillColor=#CAD9DF;" vertex="1" parent="1144">
                    <mxGeometry x="30" width="30" height="40" as="geometry"/>
                </mxCell>
                <mxCell id="1137" value="&lt;font face=&quot;Tahoma&quot;&gt;&lt;b&gt;K2&lt;/b&gt;&lt;/font&gt;" style="rounded=0;whiteSpace=wrap;html=1;strokeColor=#FFFFFF;fillColor=#6E96A6;fontColor=#FFFFFF;" vertex="1" parent="1144">
                    <mxGeometry x="60" width="30" height="40" as="geometry"/>
                </mxCell>
                <mxCell id="1139" value="&lt;font color=&quot;#345253&quot; face=&quot;Tahoma&quot;&gt;&lt;b&gt;V2&lt;/b&gt;&lt;/font&gt;" style="rounded=0;whiteSpace=wrap;html=1;strokeColor=#FFFFFF;fillColor=#CAD9DF;" vertex="1" parent="1144">
                    <mxGeometry x="90" width="30" height="40" as="geometry"/>
                </mxCell>
                <mxCell id="1140" value="&lt;font face=&quot;Tahoma&quot;&gt;&lt;b&gt;K3&lt;/b&gt;&lt;/font&gt;" style="rounded=0;whiteSpace=wrap;html=1;strokeColor=#FFFFFF;fillColor=#6E96A6;fontColor=#FFFFFF;" vertex="1" parent="1144">
                    <mxGeometry x="120" width="30" height="40" as="geometry"/>
                </mxCell>
                <mxCell id="1141" value="&lt;font color=&quot;#345253&quot; face=&quot;Tahoma&quot;&gt;&lt;b&gt;V3&lt;/b&gt;&lt;/font&gt;" style="rounded=0;whiteSpace=wrap;html=1;strokeColor=#FFFFFF;fillColor=#CAD9DF;" vertex="1" parent="1144">
                    <mxGeometry x="150" width="30" height="40" as="geometry"/>
                </mxCell>
                <mxCell id="1142" value="&lt;font face=&quot;Tahoma&quot;&gt;&lt;b&gt;...&lt;/b&gt;&lt;/font&gt;" style="rounded=0;whiteSpace=wrap;html=1;strokeColor=#FFFFFF;fillColor=#6E96A6;fontColor=#FFFFFF;" vertex="1" parent="1144">
                    <mxGeometry x="180" width="30" height="40" as="geometry"/>
                </mxCell>
                <mxCell id="1143" value="&lt;font color=&quot;#345253&quot; face=&quot;Tahoma&quot;&gt;&lt;b&gt;...&lt;/b&gt;&lt;/font&gt;" style="rounded=0;whiteSpace=wrap;html=1;strokeColor=#FFFFFF;fillColor=#CAD9DF;" vertex="1" parent="1144">
                    <mxGeometry x="210" width="30" height="40" as="geometry"/>
                </mxCell>
                <mxCell id="1145" value="" style="group" vertex="1" connectable="0" parent="1">
                    <mxGeometry x="380.63" y="140" width="240" height="40" as="geometry"/>
                </mxCell>
                <mxCell id="1146" value="&lt;font face=&quot;Tahoma&quot;&gt;&lt;b&gt;K1&lt;/b&gt;&lt;/font&gt;" style="rounded=0;whiteSpace=wrap;html=1;strokeColor=#FFFFFF;fillColor=#6E96A6;fontColor=#FFFFFF;" vertex="1" parent="1145">
                    <mxGeometry width="30" height="40" as="geometry"/>
                </mxCell>
                <mxCell id="1147" value="&lt;font color=&quot;#345253&quot; face=&quot;Tahoma&quot;&gt;&lt;b&gt;V1&lt;/b&gt;&lt;/font&gt;" style="rounded=0;whiteSpace=wrap;html=1;strokeColor=#FFFFFF;fillColor=#CAD9DF;" vertex="1" parent="1145">
                    <mxGeometry x="30" width="30" height="40" as="geometry"/>
                </mxCell>
                <mxCell id="1148" value="&lt;font face=&quot;Tahoma&quot;&gt;&lt;b&gt;...&lt;/b&gt;&lt;/font&gt;" style="rounded=0;whiteSpace=wrap;html=1;strokeColor=#FFFFFF;fillColor=#6E96A6;fontColor=#FFFFFF;" vertex="1" parent="1145">
                    <mxGeometry x="60" width="30" height="40" as="geometry"/>
                </mxCell>
                <mxCell id="1149" value="&lt;font color=&quot;#345253&quot; face=&quot;Tahoma&quot;&gt;&lt;b&gt;...&lt;/b&gt;&lt;/font&gt;" style="rounded=0;whiteSpace=wrap;html=1;strokeColor=#FFFFFF;fillColor=#CAD9DF;" vertex="1" parent="1145">
                    <mxGeometry x="90" width="30" height="40" as="geometry"/>
                </mxCell>
                <mxCell id="1150" value="&lt;font face=&quot;Tahoma&quot;&gt;&lt;b&gt;K2&lt;/b&gt;&lt;/font&gt;" style="rounded=0;whiteSpace=wrap;html=1;strokeColor=#FFFFFF;fillColor=#6E96A6;fontColor=#FFFFFF;" vertex="1" parent="1145">
                    <mxGeometry x="120" width="30" height="40" as="geometry"/>
                </mxCell>
                <mxCell id="1151" value="&lt;font color=&quot;#345253&quot; face=&quot;Tahoma&quot;&gt;&lt;b&gt;V2&lt;/b&gt;&lt;/font&gt;" style="rounded=0;whiteSpace=wrap;html=1;strokeColor=#FFFFFF;fillColor=#CAD9DF;" vertex="1" parent="1145">
                    <mxGeometry x="150" width="30" height="40" as="geometry"/>
                </mxCell>
                <mxCell id="1152" value="&lt;font face=&quot;Tahoma&quot;&gt;&lt;b&gt;...&lt;/b&gt;&lt;/font&gt;" style="rounded=0;whiteSpace=wrap;html=1;strokeColor=#FFFFFF;fillColor=#6E96A6;fontColor=#FFFFFF;" vertex="1" parent="1145">
                    <mxGeometry x="180" width="30" height="40" as="geometry"/>
                </mxCell>
                <mxCell id="1153" value="&lt;font color=&quot;#345253&quot; face=&quot;Tahoma&quot;&gt;&lt;b&gt;...&lt;/b&gt;&lt;/font&gt;" style="rounded=0;whiteSpace=wrap;html=1;strokeColor=#FFFFFF;fillColor=#CAD9DF;" vertex="1" parent="1145">
                    <mxGeometry x="210" width="30" height="40" as="geometry"/>
                </mxCell>
                <mxCell id="1154" value="&lt;font face=&quot;Tahoma&quot; color=&quot;#345253&quot;&gt;&lt;b&gt;PartitionedAppendOnlyMap&lt;/b&gt;&lt;/font&gt;" style="text;html=1;strokeColor=none;fillColor=none;align=center;verticalAlign=middle;whiteSpace=wrap;rounded=0;fontColor=#FFFFFF;" vertex="1" parent="1">
                    <mxGeometry x="409.63" y="186" width="182" height="20" as="geometry"/>
                </mxCell>
                <mxCell id="1165" value="&lt;b style=&quot;color: rgb(52 , 82 , 83) ; font-family: &amp;#34;tahoma&amp;#34;&quot;&gt;Reduce Side Task 03&lt;/b&gt;" style="whiteSpace=wrap;html=1;dashed=1;fontFamily=Verdana;fontColor=#FFFFFF;strokeColor=none;fillColor=#EDF2F4;rounded=1;" vertex="1" parent="1">
                    <mxGeometry x="485.13" y="571" width="150" height="40" as="geometry"/>
                </mxCell>
                <mxCell id="1166" value="&lt;font color=&quot;#345253&quot; face=&quot;tahoma&quot;&gt;&lt;b&gt;Reduce Side Task 01&lt;/b&gt;&lt;/font&gt;" style="whiteSpace=wrap;html=1;dashed=1;fontFamily=Verdana;fontColor=#FFFFFF;strokeColor=none;fillColor=#EDF2F4;rounded=1;" vertex="1" parent="1">
                    <mxGeometry x="52.129999999999995" y="571" width="150" height="40" as="geometry"/>
                </mxCell>
                <mxCell id="1171" value="&lt;b style=&quot;color: rgb(52 , 82 , 83) ; font-family: &amp;#34;tahoma&amp;#34;&quot;&gt;Reduce Side Task 02&lt;/b&gt;" style="whiteSpace=wrap;html=1;dashed=1;fontFamily=Verdana;fontColor=#FFFFFF;strokeColor=none;fillColor=#EDF2F4;rounded=1;" vertex="1" parent="1">
                    <mxGeometry x="268.63" y="571" width="150" height="40" as="geometry"/>
                </mxCell>
                <mxCell id="1181" value="&lt;i&gt;&lt;font face=&quot;Helvetica&quot;&gt;if mapSideCombine, &lt;br&gt;use PartitionedAppendOnlyMap&lt;/font&gt;&lt;/i&gt;" style="text;html=1;strokeColor=none;fillColor=none;align=center;verticalAlign=middle;whiteSpace=wrap;rounded=0;dashed=1;sketch=1;fontFamily=Tahoma;fontSize=11;fontColor=#345253;" vertex="1" parent="1">
                    <mxGeometry x="258.63" y="76" width="170" height="40" as="geometry"/>
                </mxCell>
                <mxCell id="1185" value="" style="edgeStyle=orthogonalEdgeStyle;html=1;entryX=0.5;entryY=0;entryDx=0;entryDy=0;endArrow=none;endFill=1;strokeColor=#999999;" edge="1" parent="1" source="1027" target="1181">
                    <mxGeometry relative="1" as="geometry">
                        <mxPoint x="343.88" y="66" as="sourcePoint"/>
                        <mxPoint x="343.63" y="126" as="targetPoint"/>
                    </mxGeometry>
                </mxCell>
                <mxCell id="1186" value="" style="shape=flexArrow;endArrow=classic;html=1;fontFamily=Tahoma;fontSize=11;fontColor=#345253;strokeColor=none;fillColor=#6E96A6;width=12;endSize=3.857142857142857;endWidth=10.857142857142858;" edge="1" parent="1">
                    <mxGeometry width="50" height="50" relative="1" as="geometry">
                        <mxPoint x="405.2700000000003" y="271" as="sourcePoint"/>
                        <mxPoint x="405.2700000000003" y="301" as="targetPoint"/>
                    </mxGeometry>
                </mxCell>
                <mxCell id="1192" value="" style="shape=flexArrow;endArrow=classic;html=1;fontFamily=Tahoma;fontSize=11;fontColor=#345253;strokeColor=none;fillColor=#6E96A6;width=12;endSize=3.857142857142857;endWidth=10.857142857142858;" edge="1" parent="1">
                    <mxGeometry width="50" height="50" relative="1" as="geometry">
                        <mxPoint x="318.7700000000001" y="271" as="sourcePoint"/>
                        <mxPoint x="318.7700000000001" y="301" as="targetPoint"/>
                    </mxGeometry>
                </mxCell>
                <mxCell id="1197" value="&lt;font face=&quot;Helvetica&quot;&gt;&lt;i&gt;sort and write&lt;/i&gt;&lt;/font&gt;" style="text;html=1;strokeColor=none;fillColor=none;align=center;verticalAlign=middle;whiteSpace=wrap;rounded=0;dashed=1;sketch=1;fontFamily=Tahoma;fontSize=11;fontColor=#345253;" vertex="1" parent="1">
                    <mxGeometry x="123.88" y="301" width="37.25" height="50" as="geometry"/>
                </mxCell>
                <mxCell id="1198" value="&lt;font face=&quot;Helvetica&quot;&gt;&lt;i&gt;sort and write&lt;/i&gt;&lt;/font&gt;" style="text;html=1;strokeColor=none;fillColor=none;align=center;verticalAlign=middle;whiteSpace=wrap;rounded=0;dashed=1;sketch=1;fontFamily=Tahoma;fontSize=11;fontColor=#345253;" vertex="1" parent="1">
                    <mxGeometry x="575.63" y="301" width="32.75" height="50" as="geometry"/>
                </mxCell>
                <mxCell id="1190" value="&lt;b&gt;&lt;font color=&quot;#345253&quot;&gt;temp&lt;/font&gt;&lt;/b&gt;" style="shape=note;whiteSpace=wrap;html=1;backgroundOutline=1;darkOpacity=0.05;fontFamily=Tahoma;fontColor=#FFFFFF;strokeColor=#FFFFFF;strokeWidth=2;size=13;rounded=1;fillColor=#EDF2F4;" vertex="1" parent="1">
                    <mxGeometry x="451.88" y="306" width="75" height="40" as="geometry"/>
                </mxCell>
                <mxCell id="1189" value="&lt;b&gt;&lt;font color=&quot;#345253&quot;&gt;temp&lt;/font&gt;&lt;/b&gt;" style="shape=note;whiteSpace=wrap;html=1;backgroundOutline=1;darkOpacity=0.05;fontFamily=Tahoma;fontColor=#FFFFFF;strokeColor=#FFFFFF;strokeWidth=2;size=13;rounded=1;fillColor=#EDF2F4;" vertex="1" parent="1">
                    <mxGeometry x="367.13" y="306" width="75" height="40" as="geometry"/>
                </mxCell>
                <mxCell id="1188" value="&lt;b&gt;&lt;font color=&quot;#345253&quot;&gt;temp&lt;/font&gt;&lt;/b&gt;" style="shape=note;whiteSpace=wrap;html=1;backgroundOutline=1;darkOpacity=0.05;fontFamily=Tahoma;fontColor=#FFFFFF;strokeColor=#FFFFFF;strokeWidth=2;size=13;rounded=1;fillColor=#EDF2F4;" vertex="1" parent="1">
                    <mxGeometry x="280.63" y="306" width="75" height="40" as="geometry"/>
                </mxCell>
                <mxCell id="1203" value="" style="shape=flexArrow;endArrow=classic;html=1;fontFamily=Tahoma;fontSize=11;fontColor=#345253;strokeColor=none;fillColor=#6E96A6;width=12;endSize=3.857142857142857;endWidth=10.857142857142858;" edge="1" parent="1">
                    <mxGeometry width="50" height="50" relative="1" as="geometry">
                        <mxPoint x="173.88" y="231" as="sourcePoint"/>
                        <mxPoint x="173.88" y="426" as="targetPoint"/>
                    </mxGeometry>
                </mxCell>
                <mxCell id="1204" value="&lt;font face=&quot;Tahoma&quot;&gt;&lt;b&gt;(partition ID, K)&lt;/b&gt;&lt;/font&gt;" style="rounded=0;whiteSpace=wrap;html=1;strokeWidth=2;fontSize=11;fontColor=#345253;fillColor=#EDF2F4;strokeColor=none;" vertex="1" parent="1">
                    <mxGeometry x="31" y="231" width="99.25" height="30" as="geometry"/>
                </mxCell>
                <mxCell id="1206" style="html=1;exitX=0;exitY=1;exitDx=0;exitDy=0;entryX=0;entryY=0;entryDx=0;entryDy=0;fontColor=#FFFFFF;endArrow=none;endFill=0;strokeColor=#999999;dashed=1;" edge="1" parent="1" source="1135" target="1204">
                    <mxGeometry relative="1" as="geometry"/>
                </mxCell>
                <mxCell id="1207" style="edgeStyle=none;html=1;exitX=1;exitY=1;exitDx=0;exitDy=0;entryX=1;entryY=0;entryDx=0;entryDy=0;dashed=1;fontColor=#FFFFFF;endArrow=none;endFill=0;strokeColor=#999999;" edge="1" parent="1" source="1135" target="1204">
                    <mxGeometry relative="1" as="geometry"/>
                </mxCell>
                <mxCell id="1219" value="&lt;font style=&quot;font-size: 10px;&quot;&gt;&lt;b style=&quot;font-size: 10px;&quot;&gt;Partition 01&lt;/b&gt;&lt;/font&gt;" style="rounded=0;whiteSpace=wrap;html=1;strokeWidth=2;strokeColor=#FFFFFF;fontSize=10;fontColor=#345253;fontFamily=Tahoma;fillColor=#FFD966;" vertex="1" parent="1">
                    <mxGeometry x="133.88" y="453.5" width="140" height="30" as="geometry"/>
                </mxCell>
                <mxCell id="1220" value="&lt;b style=&quot;font-size: 10px;&quot;&gt;Partition 02&lt;/b&gt;" style="rounded=0;whiteSpace=wrap;html=1;strokeWidth=2;strokeColor=#FFFFFF;fontSize=10;fontColor=#345253;fontFamily=Tahoma;fillColor=#FFD966;" vertex="1" parent="1">
                    <mxGeometry x="273.88" y="453.5" width="140" height="30" as="geometry"/>
                </mxCell>
                <mxCell id="1221" value="&lt;b style=&quot;font-size: 10px;&quot;&gt;Partition 03&lt;/b&gt;" style="rounded=0;whiteSpace=wrap;html=1;strokeWidth=2;strokeColor=#FFFFFF;fontSize=10;fontColor=#345253;fontFamily=Tahoma;fillColor=#FFD966;" vertex="1" parent="1">
                    <mxGeometry x="413.88" y="453.5" width="140" height="30" as="geometry"/>
                </mxCell>
                <mxCell id="1227" style="edgeStyle=none;html=1;exitX=0.5;exitY=1;exitDx=0;exitDy=0;entryX=0.5;entryY=0;entryDx=0;entryDy=0;fontFamily=Tahoma;fontSize=10;fontColor=#FFFFFF;endArrow=oval;endFill=1;strokeColor=#999999;" edge="1" parent="1" source="1223" target="1166">
                    <mxGeometry relative="1" as="geometry"/>
                </mxCell>
                <mxCell id="1223" value="&lt;font style=&quot;font-size: 10px&quot;&gt;&lt;b style=&quot;font-size: 10px&quot;&gt;Index 01&lt;/b&gt;&lt;/font&gt;" style="rounded=0;whiteSpace=wrap;html=1;strokeWidth=2;strokeColor=#FFFFFF;fontSize=10;fontColor=#345253;fillColor=#CAD9DF;fontFamily=Tahoma;" vertex="1" parent="1">
                    <mxGeometry x="133.88" y="483.5" width="140" height="30" as="geometry"/>
                </mxCell>
                <mxCell id="1228" style="edgeStyle=none;html=1;entryX=0.5;entryY=0;entryDx=0;entryDy=0;fontFamily=Tahoma;fontSize=10;fontColor=#FFFFFF;endArrow=oval;endFill=1;strokeColor=#999999;" edge="1" parent="1" source="1224" target="1171">
                    <mxGeometry relative="1" as="geometry"/>
                </mxCell>
                <mxCell id="1224" value="&lt;b&gt;Index&lt;/b&gt;&lt;b style=&quot;font-size: 10px&quot;&gt;&amp;nbsp;02&lt;/b&gt;" style="rounded=0;whiteSpace=wrap;html=1;strokeWidth=2;strokeColor=#FFFFFF;fontSize=10;fontColor=#345253;fillColor=#CAD9DF;fontFamily=Tahoma;" vertex="1" parent="1">
                    <mxGeometry x="273.88" y="483.5" width="140" height="30" as="geometry"/>
                </mxCell>
                <mxCell id="1229" style="edgeStyle=none;html=1;exitX=0.5;exitY=1;exitDx=0;exitDy=0;entryX=0.5;entryY=0;entryDx=0;entryDy=0;fontFamily=Tahoma;fontSize=10;fontColor=#FFFFFF;endArrow=oval;endFill=1;strokeColor=#999999;" edge="1" parent="1" source="1225" target="1165">
                    <mxGeometry relative="1" as="geometry"/>
                </mxCell>
                <mxCell id="1225" value="&lt;b&gt;Index&lt;/b&gt;&lt;b style=&quot;font-size: 10px&quot;&gt;&amp;nbsp;03&lt;/b&gt;" style="rounded=0;whiteSpace=wrap;html=1;strokeWidth=2;strokeColor=#FFFFFF;fontSize=10;fontColor=#345253;fillColor=#CAD9DF;fontFamily=Tahoma;" vertex="1" parent="1">
                    <mxGeometry x="413.88" y="483.5" width="140" height="30" as="geometry"/>
                </mxCell>
                <mxCell id="1230" value="&lt;font style=&quot;font-size: 12px&quot; color=&quot;#345253&quot;&gt;&lt;b&gt;DataFile&lt;/b&gt;&lt;/font&gt;" style="text;html=1;strokeColor=none;fillColor=none;align=center;verticalAlign=middle;whiteSpace=wrap;rounded=0;fontFamily=Tahoma;fontSize=10;fontColor=#FFFFFF;" vertex="1" parent="1">
                    <mxGeometry x="49.75" y="458.5" width="61.75" height="20" as="geometry"/>
                </mxCell>
                <mxCell id="1231" value="&lt;font style=&quot;font-size: 12px&quot; color=&quot;#345253&quot;&gt;&lt;b&gt;IndexFile&lt;/b&gt;&lt;/font&gt;" style="text;html=1;strokeColor=none;fillColor=none;align=center;verticalAlign=middle;whiteSpace=wrap;rounded=0;fontFamily=Tahoma;fontSize=10;fontColor=#FFFFFF;" vertex="1" parent="1">
                    <mxGeometry x="49.75" y="488.5" width="61.75" height="20" as="geometry"/>
                </mxCell>
                <mxCell id="1232" value="&lt;font face=&quot;Helvetica&quot;&gt;&lt;i&gt;if spill&lt;/i&gt;&lt;/font&gt;" style="text;html=1;strokeColor=none;fillColor=none;align=center;verticalAlign=middle;whiteSpace=wrap;rounded=0;dashed=1;sketch=1;fontFamily=Tahoma;fontSize=11;fontColor=#345253;" vertex="1" parent="1">
                    <mxGeometry x="416.07000000000005" y="241" width="39.12" height="14" as="geometry"/>
                </mxCell>
                <mxCell id="1234" value="" style="shape=flexArrow;endArrow=classic;html=1;fontFamily=Tahoma;fontSize=11;fontColor=#345253;strokeColor=none;fillColor=#6E96A6;width=12;endSize=3.857142857142857;endWidth=10.857142857142858;" edge="1" parent="1">
                    <mxGeometry width="50" height="50" relative="1" as="geometry">
                        <mxPoint x="490.0200000000001" y="271" as="sourcePoint"/>
                        <mxPoint x="490.0200000000001" y="301" as="targetPoint"/>
                    </mxGeometry>
                </mxCell>
                <mxCell id="1236" value="" style="shape=flexArrow;endArrow=classic;html=1;fontFamily=Tahoma;fontSize=11;fontColor=#345253;strokeColor=none;fillColor=#6E96A6;width=12;endSize=3.857142857142857;endWidth=10.857142857142858;" edge="1" parent="1">
                    <mxGeometry width="50" height="50" relative="1" as="geometry">
                        <mxPoint x="560.63" y="271" as="sourcePoint"/>
                        <mxPoint x="560.63" y="381" as="targetPoint"/>
                    </mxGeometry>
                </mxCell>
                <mxCell id="1237" value="&lt;font face=&quot;Helvetica&quot;&gt;&lt;i&gt;merge temp file and in-memory data&lt;/i&gt;&lt;/font&gt;" style="text;html=1;strokeColor=none;fillColor=none;align=center;verticalAlign=middle;whiteSpace=wrap;rounded=0;dashed=1;sketch=1;fontFamily=Tahoma;fontSize=11;fontColor=#345253;" vertex="1" parent="1">
                    <mxGeometry x="320.63" y="391" width="230" height="20" as="geometry"/>
                </mxCell>
                <mxCell id="1239" value="" style="shape=flexArrow;endArrow=classic;html=1;fontFamily=Tahoma;fontSize=11;fontColor=#345253;strokeColor=none;fillColor=#6E96A6;width=12;endSize=3.857142857142857;endWidth=10.857142857142858;" edge="1" parent="1">
                    <mxGeometry width="50" height="50" relative="1" as="geometry">
                        <mxPoint x="405.2700000000003" y="351" as="sourcePoint"/>
                        <mxPoint x="405.2700000000003" y="381" as="targetPoint"/>
                    </mxGeometry>
                </mxCell>
                <mxCell id="1240" value="" style="shape=flexArrow;endArrow=classic;html=1;fontFamily=Tahoma;fontSize=11;fontColor=#345253;strokeColor=none;fillColor=#6E96A6;width=12;endSize=3.857142857142857;endWidth=10.857142857142858;" edge="1" parent="1">
                    <mxGeometry width="50" height="50" relative="1" as="geometry">
                        <mxPoint x="318.7700000000001" y="351" as="sourcePoint"/>
                        <mxPoint x="318.7700000000001" y="381" as="targetPoint"/>
                    </mxGeometry>
                </mxCell>
                <mxCell id="1241" value="" style="shape=flexArrow;endArrow=classic;html=1;fontFamily=Tahoma;fontSize=11;fontColor=#345253;strokeColor=none;fillColor=#6E96A6;width=12;endSize=3.857142857142857;endWidth=10.857142857142858;" edge="1" parent="1">
                    <mxGeometry width="50" height="50" relative="1" as="geometry">
                        <mxPoint x="490.0200000000001" y="351" as="sourcePoint"/>
                        <mxPoint x="490.0200000000001" y="381" as="targetPoint"/>
                    </mxGeometry>
                </mxCell>
            </root>
        </mxGraphModel>
    </diagram>
</mxfile>